<?xml version="1.0" standalone="no"?>
<!DOCTYPE svg PUBLIC "-//W3C//DTD SVG 20010904//EN"
 "http://www.w3.org/TR/2001/REC-SVG-20010904/DTD/svg10.dtd">
<svg version="1.0" xmlns="http://www.w3.org/2000/svg"
 width="700.000000pt" height="700.000000pt" viewBox="0 0 700.000000 700.000000"
 preserveAspectRatio="xMidYMid meet">
<metadata>
Created by potrace 1.14, written by Peter Selinger 2001-2017
</metadata>
<g transform="translate(0.000000,700.000000) scale(0.100000,-0.100000)"
fill="#000000" stroke="none">
<path d="M3210 3501 l0 -2917 285 0 c205 1 288 4 293 13 4 6 6 1318 4 2916
l-2 2904 -290 0 -290 0 0 -2916z"/>
<path d="M2042 3500 l-1 -1750 292 0 292 0 0 1750 0 1750 -292 0 -291 0 0
-1750z"/>
<path d="M4375 3500 l0 -1750 292 0 291 0 0 1750 0 1750 -292 0 -291 0 0
-1750z"/>
<path d="M879 4080 c-6 -22 -4 -1147 2 -1155 6 -8 524 -13 571 -6 3 1 6 262 7
581 0 441 -3 580 -12 581 -44 4 -567 3 -568 -1z"/>
<path d="M5541 3503 c0 -438 3 -582 12 -585 10 -3 513 -2 557 1 13 1 15 70 14
579 -1 317 -2 579 -3 582 0 3 -131 5 -290 5 l-290 0 0 -582z"/>
</g>
</svg>
